#tb 0: 1/44100
#media_type 0: audio
#codec_id 0: eac3
#sample_rate 0: 44100
#channel_layout_name 0: 5.1.4
0,       -256,       -256,     1536,     6626, 0xdefa60a6
0,       1280,       1280,     1536,     6628, 0xf50f8daa
0,       2816,       2816,     1536,     6626, 0x4d50af63
0,       4352,       4352,     1536,     6626, 0x1ff9a2c4
0,       5888,       5888,     1536,     6626, 0x524a57d7
0,       7424,       7424,     1536,     6626, 0xbb3c8e9a
0,       8960,       8960,     1536,     6628, 0x52f5588d
0,      10496,      10496,     1536,     6626, 0x99abae61
